<svg aria-hidden="true" style="position: absolute; width: 0; height: 0; overflow: hidden;" version="1.1"
     xmlns="http://www.w3.org/2000/svg" xmlns:xlink="http://www.w3.org/1999/xlink">
    <defs>
        <symbol id="icon-alarm" viewBox="0 0 32 32">
            <title>alarm</title>
            <path fill="#95e1d3" style="fill: var(--color1, #95e1d3)"
                  d="M30.751 10.004c-1.585-3.697-4.549-6.662-8.246-8.246 1-0.787 2.259-1.26 3.63-1.26 3.245 0 5.876 2.631 5.876 5.876 0 1.372-0.473 2.63-1.26 3.63zM30.511 16.503c0 3.853-1.513 7.346-3.964 9.944l2.030 2.029c0.268 0.269 0.434 0.639 0.434 1.049 0 0.819-0.664 1.484-1.484 1.484-0.41 0-0.781-0.166-1.049-0.435l-2.179-2.179c-2.352 1.643-5.207 2.614-8.293 2.614-3.080 0-5.93-0.966-8.279-2.604l-2.164 2.164c-0.272 0.272-0.647 0.44-1.061 0.44-0.828 0-1.501-0.672-1.501-1.502 0-0.413 0.168-0.789 0.439-1.060l2.013-2.013c-2.444-2.596-3.952-6.084-3.952-9.931 0-8.011 6.494-14.505 14.505-14.505s14.505 6.494 14.505 14.505zM16.006 4.999c-6.353 0-11.504 5.15-11.504 11.504 0 6.353 5.151 11.504 11.504 11.504s11.504-5.151 11.504-11.504c0-6.354-5.151-11.504-11.504-11.504zM22.008 18.004h-6.002c-0.828 0-1.501-0.672-1.501-1.501v-8.003c0-0.828 0.672-1.501 1.501-1.501s1.501 0.672 1.501 1.501v6.501h4.502c0.828 0 1.501 0.672 1.501 1.502 0 0.828-0.672 1.501-1.501 1.501zM1.287 10.206c-0.804-1.020-1.287-2.306-1.287-3.706 0-3.315 2.687-6.002 6.002-6.002 1.401 0 2.686 0.483 3.707 1.287-3.776 1.618-6.804 4.646-8.422 8.421z"></path>
        </symbol>
        <symbol id="icon-book" viewBox="0 0 32 32">
            <title>book</title>
            <path fill="#95e1d3" style="fill: var(--color1, #95e1d3)"
                  d="M31.076 25.898l-14.476 5.99c-0.182 0.079-0.383 0.123-0.594 0.123s-0.412-0.044-0.594-0.123l-14.476-5.99c-0.548-0.223-0.935-0.761-0.935-1.39v-23.008c0-0.829 0.672-1.501 1.501-1.501 0.203 0 0.397 0.041 0.573 0.114h0.001l0.002 0.001c0.004 0.001 0.009 0.004 0.013 0.005l13.916 5.758 13.916-5.758c0.004-0.001 0.009-0.004 0.013-0.005l0.003-0.001c0.176-0.073 0.37-0.114 0.573-0.114 0.828 0 1.501 0.671 1.501 1.501v23.008c0 0.628-0.387 1.166-0.935 1.389zM14.505 8.506l-11.504-4.761v19.76l11.504 4.761v-19.76zM29.010 3.745l-11.504 4.761v19.76l11.504-4.761v-19.76zM19.886 10.638l5.502-2.501c0.189-0.086 0.399-0.134 0.621-0.134 0.828 0 1.501 0.671 1.501 1.501 0 0.607-0.361 1.129-0.879 1.366v0l-5.502 2.501c-0.19 0.087-0.4 0.135-0.621 0.135-0.828 0-1.501-0.672-1.501-1.501 0-0.607 0.361-1.13 0.879-1.367zM19.886 16.14v0l5.502-2.501c0.189-0.086 0.399-0.134 0.621-0.134 0.828 0 1.501 0.671 1.501 1.5 0 0.608-0.361 1.13-0.879 1.367l-5.502 2.501c-0.19 0.086-0.4 0.135-0.621 0.135-0.828 0-1.501-0.672-1.501-1.501 0-0.607 0.361-1.13 0.879-1.366zM19.886 21.642v0l5.502-2.501c0.189-0.086 0.399-0.134 0.621-0.134 0.828 0 1.501 0.671 1.501 1.501 0 0.607-0.361 1.129-0.879 1.366v0l-5.502 2.501c-0.19 0.087-0.4 0.135-0.621 0.135-0.828 0-1.501-0.672-1.501-1.501 0-0.607 0.361-1.13 0.879-1.366zM6.002 8.003c0.221 0 0.431 0.048 0.621 0.134v0l5.502 2.501c0.518 0.236 0.879 0.759 0.879 1.367 0 0.828-0.672 1.501-1.501 1.501-0.222 0-0.432-0.048-0.621-0.135v0l-5.502-2.501c-0.518-0.236-0.879-0.758-0.879-1.365 0-0.829 0.672-1.501 1.501-1.501zM6.002 13.505c0.221 0 0.431 0.048 0.621 0.134v0l5.502 2.501c0.518 0.236 0.879 0.759 0.879 1.366 0 0.828-0.672 1.501-1.501 1.501-0.222 0-0.432-0.049-0.621-0.135v0l-5.502-2.501c-0.518-0.236-0.879-0.758-0.879-1.367 0-0.828 0.672-1.5 1.501-1.5zM6.002 19.007c0.221 0 0.431 0.048 0.621 0.134v0l5.502 2.501c0.518 0.236 0.879 0.759 0.879 1.366 0 0.828-0.672 1.501-1.501 1.501-0.222 0-0.432-0.048-0.621-0.135v0l-5.502-2.501c-0.518-0.236-0.879-0.758-0.879-1.366 0-0.829 0.672-1.501 1.501-1.501z"></path>
        </symbol>
        <symbol id="icon-computer" viewBox="0 0 32 32">
            <title>computer</title>
            <path fill="#95e1d3" style="fill: var(--color1, #95e1d3)"
                  d="M30.011 25.005h-9.503v2.5l2.001 2.002v0.5h-13.005v-0.5l2.001-2.002v-2.5h-9.503c-0.828 0-1.501-0.672-1.501-1.502v-20.006c0-0.829 0.672-1.501 1.501-1.501h28.010c0.828 0 1.501 0.671 1.501 1.501v20.006c0 0.829-0.672 1.502-1.501 1.502zM29.51 3.997h-27.010v17.006h27.010v-17.006zM13.005 11c0.414 0 0.789 0.168 1.061 0.439v0l0.939 0.939 2.94-2.94c0.272-0.272 0.647-0.439 1.061-0.439 0.828 0 1.501 0.671 1.501 1.501 0 0.414-0.168 0.789-0.439 1.061v0l-4.001 4.001c-0.272 0.271-0.647 0.439-1.061 0.439s-0.789-0.168-1.061-0.439v0l-2.001-2.002c-0.271-0.271-0.439-0.646-0.439-1.060 0-0.829 0.672-1.501 1.501-1.501z"></path>
        </symbol>
        <symbol id="icon-display" viewBox="0 0 32 32">
            <title>display</title>
            <path fill="#95e1d3" style="fill: var(--color1, #95e1d3)"
                  d="M30.511 32.011h-29.010c-0.829 0-1.501-0.672-1.501-1.501v-29.010c0-0.829 0.671-1.501 1.501-1.501h29.010c0.828 0 1.501 0.671 1.501 1.501v29.010c0 0.828-0.672 1.501-1.501 1.501zM29.010 3.001h-26.009v26.009h26.009v-26.009zM6.502 4.502h5.502c0.828 0 1.501 0.671 1.501 1.501 0 0.828-0.672 1.501-1.501 1.501v0h-4.502v4.502c0 0.828-0.672 1.501-1.501 1.501s-1.501-0.672-1.501-1.501v0-7.503h2.001zM4.502 20.007v0c0-0.829 0.672-1.502 1.501-1.502s1.501 0.672 1.501 1.502v0 4.501l4.502 0.001c0.828 0 1.501 0.671 1.501 1.501 0 0.828-0.672 1.501-1.501 1.501v0h-7.503v-7.503zM20.007 4.502v0h7.503v7.503c0 0.828-0.672 1.501-1.501 1.501s-1.501-0.672-1.501-1.501v0-4.502h-4.502c-0.828 0-1.501-0.672-1.501-1.501 0-0.829 0.672-1.501 1.501-1.501zM20.007 24.509v-0.001h4.502v-4.501c0-0.829 0.672-1.502 1.501-1.502s1.501 0.672 1.501 1.502v0 7.503h-7.503c-0.828 0-1.501-0.672-1.501-1.501 0-0.829 0.672-1.501 1.501-1.501z"></path>
        </symbol>
        <symbol id="icon-home" viewBox="0 0 32 32">
            <title>home</title>
            <path fill="#95e1d3" style="fill: var(--color1, #95e1d3)"
                  d="M32.011 17.003c0 0.828-0.672 1.5-1.501 1.5-0.395 0-0.752-0.155-1.020-0.405l-0.003 0.004-13.482-13.481-13.452 13.451c-0.271 0.267-0.643 0.431-1.053 0.431-0.828 0-1.501-0.671-1.501-1.5 0-0.425 0.177-0.808 0.461-1.081l14.463-14.464c0.273-0.283 0.656-0.46 1.081-0.46v0 0c0 0 0 0 0.001 0 0.026 0 0.052 0 0.079 0.002 0.004 0 0.008 0.001 0.012 0.001 0.023 0.001 0.045 0.003 0.068 0.005 0.001 0 0.002 0 0.004 0.001 0.367 0.040 0.694 0.212 0.933 0.468l0.001-0.001 5.904 5.904v-1.378c0-0.829 0.671-1.501 1.501-1.501 0.828 0 1.501 0.671 1.501 1.501v4.38l5.6 5.6-0.004 0.004c0.25 0.268 0.406 0.625 0.406 1.020zM29.010 19.504v10.504c0 0.828-0.672 1.501-1.501 1.501h-3.001v-12.004h-6.002v12.004h-14.005c-0.828 0-1.501-0.672-1.501-1.501v-10.504l13.005-13.005 13.005 13.005zM13.505 19.504h-6.002v6.002h6.002v-6.002z"></path>
        </symbol>
        <symbol id="icon-line-graph" viewBox="0 0 32 32">
            <title>line-graph</title>
            <path fill="#95e1d3" style="fill: var(--color1, #95e1d3)"
                  d="M30.511 32.011h-29.010c-0.828 0-1.501-0.672-1.501-1.501v-29.011c0-0.827 0.672-1.5 1.501-1.5h29.010c0.828 0 1.501 0.672 1.501 1.5v29.011c0 0.828-0.672 1.501-1.501 1.501zM29.010 3.001h-26.009v26.009h26.009v-26.009zM5.217 16.245v-0.002l4.001-2.499c0.229-0.141 0.497-0.222 0.785-0.222 0.311 0 0.6 0.095 0.84 0.257l0.006-0.008 6.633 4.422 7.641-5.393c0.248-0.182 0.554-0.29 0.885-0.29 0.828 0 1.501 0.672 1.501 1.501 0 0.5-0.245 0.943-0.622 1.216h0.001l-8.504 6.002c-0.246 0.179-0.55 0.284-0.878 0.284-0.321 0-0.618-0.101-0.861-0.272l-6.659-4.44-3.136 1.961c-0.241 0.165-0.533 0.262-0.847 0.262-0.828 0-1.501-0.672-1.501-1.501 0-0.541 0.286-1.014 0.715-1.278z"></path>
        </symbol>
    </defs>
</svg>
