<svg aria-hidden="true" style="position: absolute; width: 0; height: 0; overflow: hidden;" version="1.1"
     xmlns="http://www.w3.org/2000/svg" xmlns:xlink="http://www.w3.org/1999/xlink"
>
    <defs>
        <symbol id="icon-facebook" viewBox="0 0 16 32">
            <title>facebook</title>
            <path d="M14.882 0.245c0 1.817 0 5.073 0 5.073s-3.739-0.373-4.675 1.060c-0.512 0.783-0.208 3.078-0.254 4.725 1.632 0 3.328 0 4.96 0-0.419 1.925-0.719 3.23-1.028 4.897-1.412 0-3.959 0-3.959 0v15.762c0 0-4.674 0-6.872 0 0.001-4.859-0.001-10.528 0-15.701-1.067 0-1.856 0-2.924 0 0-1.817 0-3.14 0-4.959 1.035 0 1.855 0 2.892 0 0.148-3.627 0.203-7.219 2.005-9.048 2.024-2.057 3.955-1.81 9.854-1.81z"></path>
        </symbol>
        <symbol id="icon-instagram"  viewBox="0 0 38 32">
            <title>instagram</title>
            <path d="M25.479 0.879c2.959-0.052 4.535 1.026 6.039 2.396 1.277-0.109 2.937-0.822 3.915-1.32 0.316-0.172 0.633-0.346 0.95-0.519-0.559 1.509-1.315 2.69-2.479 3.588-0.259 0.198-0.515 0.467-0.839 0.594 0 0.006 0 0.013 0 0.019 1.659-0.016 3.026-0.765 4.325-1.171 0 0.006 0 0.013 0 0.019-0.682 1.084-1.606 2.185-2.591 2.974-0.397 0.316-0.796 0.631-1.193 0.947 0.022 1.756-0.026 3.432-0.354 4.907-1.909 8.576-6.966 14.399-14.969 16.894-2.875 0.895-7.519 1.263-10.813 0.445-1.632-0.404-3.108-0.863-4.491-1.468-0.77-0.336-1.482-0.7-2.163-1.116-0.224-0.135-0.447-0.272-0.671-0.407 0.742 0.022 1.612 0.227 2.441 0.092 0.752-0.121 1.488-0.089 2.182-0.24 1.728-0.38 3.263-0.882 4.584-1.656 0.642-0.375 1.615-0.815 2.070-1.356-0.858 0.015-1.637-0.185-2.274-0.409-2.472-0.873-3.911-2.478-4.848-4.888 0.749 0.083 2.907 0.278 3.412-0.148-0.943-0.052-1.849-0.598-2.498-1.004-1.989-1.244-3.61-3.33-3.598-6.541 0.262 0.124 0.522 0.247 0.783 0.371 0.5 0.211 1.008 0.323 1.603 0.447 0.252 0.052 0.755 0.199 1.045 0.092-0.013 0-0.025 0-0.038 0-0.384-0.447-1.011-0.745-1.398-1.226-1.276-1.584-2.47-4.024-1.715-6.931 0.192-0.738 0.496-1.388 0.821-1.989 0.013 0.006 0.025 0.012 0.038 0.017 0.148 0.311 0.48 0.54 0.69 0.8 0.652 0.807 1.455 1.533 2.274 2.174 2.79 2.182 5.303 3.524 9.339 4.516 1.024 0.253 2.207 0.445 3.431 0.447-0.343-0.999-0.233-2.619 0.036-3.586 0.681-2.435 2.158-4.189 4.325-5.13 0.518-0.224 1.093-0.388 1.696-0.521 0.311-0.036 0.621-0.074 0.933-0.111z"></path>
        </symbol>
        <symbol id="icon-pinterest" viewBox="0 0 26 32">
            <title>pinterest</title>
            <path d="M11.143 20.748c-0.257 1.025-0.517 2.1-0.785 3.151-0.265 1.037-0.499 2.088-0.884 3.041-0.639 1.577-1.45 3.101-2.515 4.335-0.708 0.821-0.558 0.494-0.771 0.449-0.162-0.034-0.176-0.193-0.208-0.425-0.174-1.253-0.055-2.702 0.009-4.11 0.074-1.605 0.411-2.94 0.725-4.273 0.596-2.541 1.165-5.031 1.767-7.588 0.039-0.17 0.148-0.451 0.111-0.548-0.273-0.71-0.451-1.348-0.528-2.094-0.090-0.856-0.021-1.655 0.171-2.392 0.341-1.302 1.124-2.456 2.332-2.878 0.768-0.266 1.619-0.145 2.136 0.162 0.532 0.319 0.897 0.821 1.067 1.534 0.182 0.757 0.048 1.663-0.098 2.328-0.329 1.501-0.761 2.627-1.153 4.075-0.194 0.718-0.415 1.455-0.233 2.231 0.167 0.712 0.538 1.201 1.043 1.57 0.524 0.382 1.145 0.59 2 0.56 1.512-0.053 2.562-1.019 3.263-1.93 1.124-1.459 1.803-3.427 2.062-5.769 0.082-0.756 0.144-1.624 0.086-2.479-0.108-1.581-0.602-2.852-1.387-3.837-0.746-0.939-1.805-1.685-3.092-2.106-1.277-0.416-3.043-0.555-4.613-0.287-2.854 0.489-4.865 2.11-6.051 4.349-0.62 1.172-1.030 2.52-1.030 4.198 0 1.294 0.319 2.296 0.835 3.078 0.164 0.247 0.404 0.452 0.564 0.735 0.228 0.401-0.034 0.998-0.146 1.433-0.135 0.523-0.15 1.246-0.761 1.258-0.254 0.005-0.571-0.18-0.785-0.299-1.607-0.888-2.582-2.503-2.982-4.597-0.244-1.273-0.242-2.756 0-3.986 0.234-1.19 0.67-2.287 1.153-3.177 1.002-1.85 2.471-3.33 4.258-4.386 1.374-0.813 2.924-1.382 4.81-1.657 0.625-0.091 1.273-0.129 1.976-0.162 2.053-0.096 3.92 0.369 5.325 0.997 1.483 0.664 2.668 1.546 3.669 2.642 1.032 1.126 1.783 2.436 2.258 4.074 0.249 0.852 0.49 1.763 0.49 2.815 0 1.056-0.223 1.986-0.379 2.915-0.584 3.481-2.239 6.329-4.725 7.95-0.602 0.391-1.331 0.755-2.159 0.996-0.821 0.239-1.758 0.419-2.761 0.348-0.974-0.066-1.771-0.331-2.441-0.71-0.665-0.375-1.224-0.836-1.62-1.531z"></path>
        </symbol>
        <symbol id="icon-twitter" viewBox="0 0 32 32">
            <title>twitter</title>
            <path d="M27.945 31.761h-23.636c-2.175 0-3.939-1.764-3.939-3.941v-23.635c0-2.176 1.764-3.941 3.939-3.941h23.636c2.175 0 3.939 1.764 3.939 3.941v23.635c0 2.176-1.764 3.941-3.939 3.941zM16.127 9.896c-2.457 0-4.568 1.455-5.537 3.545h-0.006c-0.010 0.022-0.017 0.046-0.027 0.068-0.058 0.129-0.108 0.262-0.158 0.395-0.023 0.065-0.049 0.128-0.070 0.192-0.046 0.138-0.082 0.277-0.117 0.419-0.017 0.065-0.037 0.13-0.052 0.197-0.032 0.149-0.054 0.3-0.075 0.453-0.009 0.062-0.021 0.122-0.028 0.185-0.022 0.214-0.036 0.432-0.036 0.654 0 3.372 2.734 6.105 6.106 6.105s6.106-2.733 6.106-6.105c0-0.222-0.014-0.439-0.036-0.654-0.007-0.063-0.020-0.123-0.028-0.185-0.021-0.153-0.043-0.304-0.075-0.453-0.015-0.066-0.034-0.132-0.052-0.197-0.034-0.142-0.071-0.281-0.117-0.419-0.021-0.064-0.047-0.127-0.070-0.192-0.049-0.133-0.1-0.266-0.158-0.395-0.010-0.022-0.017-0.046-0.027-0.068h-0.006c-0.969-2.090-3.080-3.545-5.537-3.545zM28.338 5.366c0-0.87-0.705-1.575-1.576-1.575h-3.151c-0.87 0-1.576 0.704-1.576 1.575v3.153c0 0.87 0.705 1.576 1.576 1.576h3.151c0.87 0 1.576-0.705 1.576-1.576v-3.153zM28.338 13.442h-2.905c0.224 0.816 0.345 1.675 0.345 2.562 0 5.33-4.321 9.65-9.651 9.65s-9.651-4.32-9.651-9.65c0-0.886 0.121-1.746 0.345-2.562h-2.905v13.197c0 0.872 0.705 1.577 1.576 1.577h21.272c0.87 0 1.576-0.705 1.576-1.577v-13.197z"></path>
        </symbol>
    </defs>
</svg>
